<svg width="16" height="20" viewBox="0 0 16 20" fill="none" xmlns="http://www.w3.org/2000/svg">
<g id="Group">
<g id="Vector">
<mask id="path-1-inside-1_24_148" fill="white">
<path d="M15.5 17.9167V20H13.8333V17.9167C13.8333 16.7675 12.8992 15.8333 11.75 15.8333H4.25C3.69767 15.834 3.16815 16.0537 2.77759 16.4442C2.38704 16.8348 2.16733 17.3643 2.16667 17.9167V20H0.500001V17.9167C0.500001 15.8492 2.1825 14.1667 4.25 14.1667H11.75C13.8175 14.1667 15.5 15.8492 15.5 17.9167ZM8.68667 5.07915C9.20555 5.20299 9.68029 5.46736 10.0588 5.84324C10.4373 6.21912 10.705 6.69199 10.8325 7.20999C10.9938 7.86558 10.9237 8.55676 10.6342 9.16665H11.7225C11.9252 9.16841 12.1215 9.09602 12.2745 8.9631C12.4276 8.83019 12.5267 8.64592 12.5533 8.44499C12.6114 7.93564 12.5857 7.42024 12.4775 6.91916C12.1075 5.18666 10.7017 3.78916 8.96667 3.43249C8.29799 3.28991 7.60592 3.29847 6.94097 3.45752C6.27603 3.61658 5.65499 3.92212 5.12321 4.35184C4.59143 4.78156 4.16233 5.32462 3.86723 5.94136C3.57212 6.55809 3.41848 7.23295 3.4175 7.91666C3.41664 9.09388 3.87043 10.226 4.68417 11.0767C4.7175 10.37 4.9725 9.72082 5.38084 9.19666C5.18511 8.79808 5.08361 8.35986 5.08417 7.91582C5.0847 7.47446 5.18522 7.03896 5.37818 6.64202C5.57114 6.24507 5.85153 5.897 6.19828 5.62395C6.54503 5.35089 6.94914 5.15994 7.38027 5.06544C7.81139 4.97094 8.25832 4.97535 8.6875 5.07832L8.68667 5.07915ZM3.72583 3.35665C5 2.16249 6.66834 1.57249 8.4175 1.68082C11.6875 1.89249 14.25 4.73832 14.25 8.15915C14.2493 8.86819 13.9674 9.54799 13.466 10.0493C12.9647 10.5507 12.2849 10.8327 11.5758 10.8333H9.57833C9.46487 10.4493 9.21698 10.1189 8.87998 9.90252C8.54297 9.68618 8.13936 9.59834 7.74293 9.65508C7.3465 9.71181 6.98372 9.90932 6.72092 10.2115C6.45813 10.5137 6.31285 10.9004 6.31167 11.3008C6.31182 11.6278 6.40815 11.9475 6.58864 12.2201C6.76914 12.4927 7.02584 12.7062 7.32678 12.8341C7.62772 12.9619 7.95961 12.9984 8.28113 12.939C8.60265 12.8796 8.8996 12.7269 9.135 12.5H11.575C12.7259 12.4987 13.8292 12.0409 14.643 11.2271C15.4568 10.4133 15.9145 9.31001 15.9158 8.15915C15.9167 3.86166 12.67 0.284989 8.525 0.0174886C7.44212 -0.0589057 6.35517 0.0903731 5.33297 0.455873C4.31078 0.821373 3.3756 1.39513 2.58667 2.14082C1.09775 3.5406 0.205385 5.46022 0.0950012 7.50082H1.76417C1.86303 5.91897 2.56555 4.43547 3.72667 3.35665H3.72583Z"/>
</mask>
<path d="M15.5 17.9167V20H13.8333V17.9167C13.8333 16.7675 12.8992 15.8333 11.75 15.8333H4.25C3.69767 15.834 3.16815 16.0537 2.77759 16.4442C2.38704 16.8348 2.16733 17.3643 2.16667 17.9167V20H0.500001V17.9167C0.500001 15.8492 2.1825 14.1667 4.25 14.1667H11.75C13.8175 14.1667 15.5 15.8492 15.5 17.9167ZM8.68667 5.07915C9.20555 5.20299 9.68029 5.46736 10.0588 5.84324C10.4373 6.21912 10.705 6.69199 10.8325 7.20999C10.9938 7.86558 10.9237 8.55676 10.6342 9.16665H11.7225C11.9252 9.16841 12.1215 9.09602 12.2745 8.9631C12.4276 8.83019 12.5267 8.64592 12.5533 8.44499C12.6114 7.93564 12.5857 7.42024 12.4775 6.91916C12.1075 5.18666 10.7017 3.78916 8.96667 3.43249C8.29799 3.28991 7.60592 3.29847 6.94097 3.45752C6.27603 3.61658 5.65499 3.92212 5.12321 4.35184C4.59143 4.78156 4.16233 5.32462 3.86723 5.94136C3.57212 6.55809 3.41848 7.23295 3.4175 7.91666C3.41664 9.09388 3.87043 10.226 4.68417 11.0767C4.7175 10.37 4.9725 9.72082 5.38084 9.19666C5.18511 8.79808 5.08361 8.35986 5.08417 7.91582C5.0847 7.47446 5.18522 7.03896 5.37818 6.64202C5.57114 6.24507 5.85153 5.897 6.19828 5.62395C6.54503 5.35089 6.94914 5.15994 7.38027 5.06544C7.81139 4.97094 8.25832 4.97535 8.6875 5.07832L8.68667 5.07915ZM3.72583 3.35665C5 2.16249 6.66834 1.57249 8.4175 1.68082C11.6875 1.89249 14.25 4.73832 14.25 8.15915C14.2493 8.86819 13.9674 9.54799 13.466 10.0493C12.9647 10.5507 12.2849 10.8327 11.5758 10.8333H9.57833C9.46487 10.4493 9.21698 10.1189 8.87998 9.90252C8.54297 9.68618 8.13936 9.59834 7.74293 9.65508C7.3465 9.71181 6.98372 9.90932 6.72092 10.2115C6.45813 10.5137 6.31285 10.9004 6.31167 11.3008C6.31182 11.6278 6.40815 11.9475 6.58864 12.2201C6.76914 12.4927 7.02584 12.7062 7.32678 12.8341C7.62772 12.9619 7.95961 12.9984 8.28113 12.939C8.60265 12.8796 8.8996 12.7269 9.135 12.5H11.575C12.7259 12.4987 13.8292 12.0409 14.643 11.2271C15.4568 10.4133 15.9145 9.31001 15.9158 8.15915C15.9167 3.86166 12.67 0.284989 8.525 0.0174886C7.44212 -0.0589057 6.35517 0.0903731 5.33297 0.455873C4.31078 0.821373 3.3756 1.39513 2.58667 2.14082C1.09775 3.5406 0.205385 5.46022 0.0950012 7.50082H1.76417C1.86303 5.91897 2.56555 4.43547 3.72667 3.35665H3.72583Z" fill="#64748B"/>
<path d="M15.5 20V41.3333H36.8333V20H15.5ZM13.8333 20H-7.5V41.3333H13.8333V20ZM4.25 15.8333V-5.50001H4.23722L4.22445 -5.5L4.25 15.8333ZM2.16667 17.9167L-19.1667 17.8911L-19.1667 17.9039V17.9167H2.16667ZM2.16667 20V41.3333H23.5V20H2.16667ZM0.500001 20H-20.8333V41.3333H0.500001V20ZM8.68667 5.07915L-6.40187 -10.0022L-33.3662 16.975L3.73419 25.8297L8.68667 5.07915ZM10.8325 7.20999L31.5481 2.11335L31.5478 2.11207L10.8325 7.20999ZM10.6342 9.16665L-8.63735 0.0168044L-23.1103 30.5H10.6342V9.16665ZM11.7225 9.16665L11.9074 -12.1659L11.8149 -12.1667H11.7225V9.16665ZM12.5533 8.44499L33.7018 11.2473L33.7275 11.0535L33.7496 10.8593L12.5533 8.44499ZM12.4775 6.91916L-8.38536 11.3747L-8.38018 11.399L-8.37494 11.4233L12.4775 6.91916ZM8.96667 3.43249L4.51801 24.2968L4.59443 24.3131L4.67097 24.3289L8.96667 3.43249ZM3.4175 7.91666L-17.9158 7.8862L-17.9158 7.89361L-17.9158 7.90102L3.4175 7.91666ZM4.68417 11.0767L-10.7319 25.8231L23.6502 61.7665L25.9938 12.0818L4.68417 11.0767ZM5.38084 9.19666L22.2103 22.307L30.4142 11.7759L24.5299 -0.206786L5.38084 9.19666ZM5.08417 7.91582L26.4175 7.94273V7.94161L5.08417 7.91582ZM8.6875 5.07832L23.776 20.1597L50.7024 -6.77956L13.6649 -15.6662L8.6875 5.07832ZM3.72583 3.35665L-10.8625 -12.209L-50.2335 24.69H3.72583V3.35665ZM8.4175 1.68082L9.79552 -19.608L9.76588 -19.6099L9.73624 -19.6117L8.4175 1.68082ZM14.25 8.15915L35.5833 8.17907L35.5833 8.16911V8.15915H14.25ZM11.5758 10.8333V32.1667H11.5858L11.5958 32.1666L11.5758 10.8333ZM9.57833 10.8333L-10.8809 16.8775L-6.36404 32.1667H9.57833V10.8333ZM6.31167 11.3008L-15.0216 11.2376L-15.0217 11.2743L-15.0217 11.311L6.31167 11.3008ZM9.135 12.5V-8.83335H0.527123L-5.67033 -2.85948L9.135 12.5ZM11.575 12.5V33.8333H11.5873L11.5995 33.8333L11.575 12.5ZM15.9158 8.15915L37.2492 8.18369L37.2492 8.17349V8.16329L15.9158 8.15915ZM8.525 0.0174886L7.02373 21.2979L7.0874 21.3024L7.1511 21.3065L8.525 0.0174886ZM2.58667 2.14082L17.1991 17.6839L17.2199 17.6643L17.2407 17.6447L2.58667 2.14082ZM0.0950012 7.50082L-21.2072 6.34851L-22.4235 28.8342H0.0950012V7.50082ZM1.76417 7.50082V28.8342H21.8058L23.056 8.83153L1.76417 7.50082ZM3.72667 3.35665L18.2476 18.9853L58.0292 -17.9767H3.72667V3.35665ZM-5.83333 17.9167V20H36.8333V17.9167H-5.83333ZM15.5 -1.33335H13.8333V41.3333H15.5V-1.33335ZM35.1667 20V17.9167H-7.5V20H35.1667ZM35.1667 17.9167C35.1667 4.98541 24.6812 -5.50001 11.75 -5.50001V37.1667C1.11709 37.1667 -7.5 28.5496 -7.5 17.9167H35.1667ZM11.75 -5.50001H4.25V37.1667H11.75V-5.50001ZM4.22445 -5.5C-1.97699 -5.49257 -7.92229 -3.02576 -12.3074 1.3593L17.8625 31.5292C14.2586 35.1331 9.37233 37.1605 4.27556 37.1666L4.22445 -5.5ZM-12.3074 1.3593C-16.6924 5.74437 -19.1592 11.6897 -19.1667 17.8911L23.5 17.9422C23.4939 23.039 21.4665 27.9252 17.8625 31.5292L-12.3074 1.3593ZM-19.1667 17.9167V20H23.5V17.9167H-19.1667ZM2.16667 -1.33335H0.500001V41.3333H2.16667V-1.33335ZM21.8333 20V17.9167H-20.8333V20H21.8333ZM21.8333 17.9167C21.8333 27.6312 13.9646 35.5 4.25 35.5V-7.16668C-9.59957 -7.16668 -20.8333 4.06708 -20.8333 17.9167H21.8333ZM4.25 35.5H11.75V-7.16668H4.25V35.5ZM11.75 35.5C2.03543 35.5 -5.83333 27.6312 -5.83333 17.9167H36.8333C36.8333 4.06708 25.5996 -7.16668 11.75 -7.16668V35.5ZM3.73419 25.8297C0.441512 25.0438 -2.57109 23.3662 -4.97313 20.981L25.0908 -9.29453C21.9317 -12.4315 17.9696 -14.6378 13.6391 -15.6714L3.73419 25.8297ZM-4.97313 20.981C-7.37517 18.5957 -9.07384 15.595 -9.88277 12.3079L31.5478 2.11207C30.4839 -2.21099 28.2499 -6.15751 25.0908 -9.29453L-4.97313 20.981ZM-9.88308 12.3066C-10.8962 8.18885 -10.4561 3.84754 -8.63735 0.0168044L29.9057 18.3165C32.3036 13.266 32.8838 7.54231 31.5481 2.11335L-9.88308 12.3066ZM10.6342 30.5H11.7225V-12.1667H10.6342V30.5ZM11.5377 30.4992C16.9445 30.546 22.182 28.6148 26.2642 25.069L-1.71514 -7.1428C2.06099 -10.4228 6.90585 -12.2092 11.9074 -12.1659L11.5377 30.4992ZM26.2642 25.069C30.3464 21.5232 32.9916 16.6075 33.7018 11.2473L-8.59515 5.64271C-7.93814 0.684336 -5.49126 -3.86285 -1.71514 -7.1428L26.2642 25.069ZM33.7496 10.8593C34.0707 8.04044 33.9289 5.1881 33.3299 2.41505L-8.37494 11.4233C-8.75745 9.65238 -8.84799 7.83084 -8.64294 6.03069L33.7496 10.8593ZM33.3404 2.46359C31.205 -7.53504 23.3109 -15.3982 13.2624 -17.4639L4.67097 24.3289C-1.90754 22.9765 -6.99001 17.9084 -8.38536 11.3747L33.3404 2.46359ZM13.4153 -17.4318C9.63993 -18.2368 5.73241 -18.1885 1.97806 -17.2905L11.9039 24.2055C9.47943 24.7855 6.95606 24.8167 4.51801 24.2968L13.4153 -17.4318ZM1.97806 -17.2905C-1.77629 -16.3925 -5.28271 -14.6673 -8.2852 -12.2411L18.5316 20.9448C16.5927 22.5116 14.3283 23.6256 11.9039 24.2055L1.97806 -17.2905ZM-8.2852 -12.2411C-11.2877 -9.81485 -13.7105 -6.74871 -15.3766 -3.26654L23.1111 15.1493C22.0351 17.3979 20.4706 19.378 18.5316 20.9448L-8.2852 -12.2411ZM-15.3766 -3.26654C-17.0428 0.215625 -17.9103 4.02593 -17.9158 7.8862L24.7508 7.94711C24.7473 10.44 24.187 12.9006 23.1111 15.1493L-15.3766 -3.26654ZM-17.9158 7.90102C-17.9207 14.5777 -15.347 20.9983 -10.7319 25.8231L20.1002 -3.66975C23.0879 -0.546397 24.754 3.61008 24.7508 7.93229L-17.9158 7.90102ZM25.9938 12.0818C25.812 15.9361 24.4093 19.4841 22.2103 22.307L-11.4486 -3.91371C-14.4643 -0.0425029 -16.377 4.80386 -16.6255 10.0715L25.9938 12.0818ZM24.5299 -0.206786C25.7752 2.3292 26.421 5.11748 26.4175 7.94273L-16.2491 7.88891C-16.2538 11.6022 -15.405 15.267 -13.7682 18.6001L24.5299 -0.206786ZM26.4175 7.94161C26.4141 10.7229 25.7807 13.4674 24.5647 15.9688L-13.8083 -2.68481C-15.4102 0.610544 -16.2447 4.22599 -16.2491 7.89003L26.4175 7.94161ZM24.5647 15.9688C23.3487 18.4703 21.5818 20.6637 19.3966 22.3845L-7.00005 -11.1366C-9.87871 -8.86973 -12.2064 -5.98015 -13.8083 -2.68481L24.5647 15.9688ZM19.3966 22.3845C17.2115 24.1052 14.6648 25.3085 11.948 25.904L2.81254 -15.7732C-0.766549 -14.9886 -4.12138 -13.4034 -7.00005 -11.1366L19.3966 22.3845ZM11.948 25.904C9.23116 26.4996 6.4147 26.4718 3.71011 25.8229L13.6649 -15.6662C10.1019 -16.5211 6.39162 -16.5577 2.81254 -15.7732L11.948 25.904ZM-6.40104 -10.003L-6.40187 -10.0022L23.7752 20.1605L23.776 20.1597L-6.40104 -10.003ZM18.3142 18.9223C15.226 21.8166 11.1111 23.2219 7.09876 22.9734L9.73624 -19.6117C2.2256 -20.0769 -5.22603 -17.4916 -10.8625 -12.209L18.3142 18.9223ZM7.03948 22.9696C-1.68656 22.4048 -7.08333 15.1946 -7.08333 8.15915H35.5833C35.5833 -5.71794 25.0616 -18.6198 9.79552 -19.608L7.03948 22.9696ZM-7.08332 8.13924C-7.07871 3.19722 -5.11346 -1.54106 -1.61892 -5.0356L28.551 25.1343C33.0482 20.637 35.5774 14.5391 35.5833 8.17907L-7.08332 8.13924ZM-1.61892 -5.0356C1.87561 -8.53013 6.61389 -10.4954 11.5559 -10.5L11.5958 32.1666C17.9558 32.1607 24.0537 29.6315 28.551 25.1343L-1.61892 -5.0356ZM11.5758 -10.5H9.57833V32.1667H11.5758V-10.5ZM30.0375 4.78912C28.4725 -0.508466 25.0532 -5.06588 20.4046 -8.05001L-2.64468 27.855C-6.6192 25.3036 -9.54274 21.407 -10.8809 16.8775L30.0375 4.78912ZM20.4046 -8.05001C15.7561 -11.0342 10.1889 -12.2457 4.72066 -11.4631L10.7652 30.7732C6.08985 31.4423 1.32984 30.4065 -2.64468 27.855L20.4046 -8.05001ZM4.72066 -11.4631C-0.747543 -10.6805 -5.7515 -7.95616 -9.37646 -3.78798L22.8183 24.211C19.7189 27.7748 15.4405 30.1041 10.7652 30.7732L4.72066 -11.4631ZM-9.37646 -3.78798C-13.0014 0.380195 -15.0052 5.71372 -15.0216 11.2376L27.6449 11.364C27.6309 16.087 25.9177 20.6472 22.8183 24.211L-9.37646 -3.78798ZM-15.0217 11.311C-15.0195 15.823 -13.6903 20.2348 -11.1994 23.997L24.3767 0.443177C26.5066 3.66016 27.6432 7.43255 27.645 11.2907L-15.0217 11.311ZM-11.1994 23.997C-8.70857 27.7593 -5.16613 30.7057 -1.01314 32.4697L15.6667 -6.80154C19.2178 -5.29326 22.2468 -2.7738 24.3767 0.443177L-11.1994 23.997ZM-1.01314 32.4697C3.13986 34.2336 7.71995 34.737 12.1569 33.9173L4.40534 -8.03935C8.19927 -8.74028 12.1156 -8.30982 15.6667 -6.80154L-1.01314 32.4697ZM12.1569 33.9173C16.5939 33.0975 20.6918 30.9908 23.9403 27.8595L-5.67033 -2.85948C-2.89257 -5.53702 0.611394 -7.33841 4.40534 -8.03935L12.1569 33.9173ZM9.135 33.8333H11.575V-8.83335H9.135V33.8333ZM11.5995 33.8333C18.3998 33.8255 24.9194 31.1206 29.7279 26.3121L-0.441972 -3.85782C2.73902 -7.03881 7.05188 -8.82816 11.5505 -8.83333L11.5995 33.8333ZM29.7279 26.3121C34.5365 21.5035 37.2413 14.984 37.2492 8.18369L-5.41748 8.13462C-5.41231 3.63602 -3.62296 -0.676836 -0.441972 -3.85782L29.7279 26.3121ZM37.2492 8.16329C37.2521 -6.75571 25.8877 -20.2397 9.8989 -21.2716L7.1511 21.3065C-0.547669 20.8097 -5.41872 14.479 -5.4175 8.15502L37.2492 8.16329ZM10.0263 -21.263C5.99739 -21.5472 1.95338 -20.9918 -1.8497 -19.6319L12.5156 20.5437C10.757 21.1725 8.88684 21.4294 7.02373 21.2979L10.0263 -21.263ZM-1.8497 -19.6319C-5.65279 -18.2721 -9.13211 -16.1374 -12.0674 -13.3631L17.2407 17.6447C15.8833 18.9277 14.2743 19.9148 12.5156 20.5437L-1.8497 -19.6319ZM-12.0258 -13.4023C-17.5122 -8.24431 -20.8004 -1.17081 -21.2072 6.34851L21.3972 8.65313C21.2112 12.0912 19.7077 15.3255 17.1991 17.6839L-12.0258 -13.4023ZM0.0950012 28.8342H1.76417V-13.8325H0.0950012V28.8342ZM23.056 8.83153C22.8137 12.7073 21.0925 16.3421 18.2476 18.9853L-10.7942 -12.272C-15.9614 -7.47111 -19.0877 -0.869355 -19.5276 6.17011L23.056 8.83153ZM3.72667 -17.9767H3.72583V24.69H3.72667V-17.9767Z" fill="#64748B" mask="url(#path-1-inside-1_24_148)"/>
</g>
</g>
</svg>
